<svg width="21" height="22" viewBox="0 0 21 22" fill="none" xmlns="http://www.w3.org/2000/svg">
  <path d="M6.70031 2.28849C5.27807 2.90913 4.02951 3.86873 3.0638 5.08338C2.09809 6.29804 1.44463 7.73076 1.16055 9.25631C0.876468 10.7818 0.970416 12.3538 1.43418 13.8346C1.89795 15.3154 2.7174 16.6601 3.82092 17.7511C4.92443 18.8421 6.27839 19.6462 7.76444 20.093C9.25048 20.5398 10.8234 20.6158 12.3456 20.3143C13.8678 20.0128 15.2929 19.343 16.4965 18.3635C16.4965 18.3635 18.1002 17.1748 19.277 14.7998M20.0002 10.9999C20.0002 9.75234 19.7544 8.51701 19.277 7.36444C18.7996 6.21186 18.0998 5.1646 17.2177 4.28245C16.3356 3.40031 15.2883 2.70055 14.1357 2.22314C12.9831 1.74572 11.7478 1.5 10.5003 1.5V10.9999H20.0002Z" stroke="currentColor" stroke-width="1.89998" stroke-linecap="round" stroke-linejoin="round" />
</svg>