<svg width="21" height="18" viewBox="0 0 21 18" fill="none" xmlns="http://www.w3.org/2000/svg">
  <path d="M0 1.96875C0 0.881426 0.881426 0 1.96875 0C3.05607 0 3.9375 0.881426 3.9375 1.96875C3.9375 3.05566 3.05607 3.9375 1.96875 3.9375C0.881426 3.9375 0 3.05566 0 1.96875ZM19.0312 0.65625C19.7572 0.65625 20.3438 1.244 20.3438 1.96875C20.3438 2.69473 19.7572 3.28125 19.0312 3.28125H7.21875C6.49277 3.28125 5.90625 2.69473 5.90625 1.96875C5.90625 1.244 6.49277 0.65625 7.21875 0.65625H19.0312ZM19.0312 7.21875C19.7572 7.21875 20.3438 7.80527 20.3438 8.53125C20.3438 9.25723 19.7572 9.84375 19.0312 9.84375H7.21875C6.49277 9.84375 5.90625 9.25723 5.90625 8.53125C5.90625 7.80527 6.49277 7.21875 7.21875 7.21875H19.0312ZM19.0312 13.7812C19.7572 13.7812 20.3438 14.3678 20.3438 15.0938C20.3438 15.8197 19.7572 16.4062 19.0312 16.4062H7.21875C6.49277 16.4062 5.90625 15.8197 5.90625 15.0938C5.90625 14.3678 6.49277 13.7812 7.21875 13.7812H19.0312ZM0 15.0938C0 14.0068 0.881426 13.125 1.96875 13.125C3.05607 13.125 3.9375 14.0068 3.9375 15.0938C3.9375 16.1807 3.05607 17.0625 1.96875 17.0625C0.881426 17.0625 0 16.1807 0 15.0938ZM3.9375 8.53125C3.9375 9.61816 3.05607 10.5 1.96875 10.5C0.881426 10.5 0 9.61816 0 8.53125C0 7.44434 0.881426 6.5625 1.96875 6.5625C3.05607 6.5625 3.9375 7.44434 3.9375 8.53125Z" fill="currentColor" />
</svg>