<svg width="96" height="23" viewBox="0 0 96 23" fill="none" xmlns="http://www.w3.org/2000/svg">
  <path d="M12.5423 6.70703C12.4461 5.80765 12.0411 5.10736 11.3271 4.60618C10.6199 4.10499 9.69993 3.8544 8.56712 3.8544C7.77072 3.8544 7.0876 3.97455 6.51776 4.21484C5.94792 4.45514 5.51196 4.78125 5.20987 5.19318C4.90779 5.60511 4.75331 6.0754 4.74645 6.60405C4.74645 7.04344 4.846 7.42448 5.0451 7.74716C5.25107 8.06984 5.52912 8.34446 5.87926 8.57102C6.2294 8.79072 6.61731 8.97609 7.04297 9.12713C7.46863 9.27817 7.89773 9.40518 8.33026 9.50817L10.3075 10.0025C11.1039 10.1879 11.8694 10.4384 12.604 10.7543C13.3455 11.0701 14.008 11.4683 14.5916 11.9489C15.1821 12.4295 15.6489 13.0096 15.9922 13.6893C16.3355 14.369 16.5071 15.1654 16.5071 16.0785C16.5071 17.3143 16.1913 18.4025 15.5597 19.343C14.928 20.2768 14.0149 21.0079 12.8203 21.5366C11.6326 22.0584 10.1942 22.3192 8.50533 22.3192C6.86447 22.3192 5.43987 22.0652 4.23153 21.5572C3.03007 21.0491 2.08949 20.3076 1.4098 19.3327C0.736979 18.3578 0.373106 17.1701 0.318182 15.7695H4.07706C4.13198 16.5041 4.35855 17.1152 4.75675 17.6026C5.15495 18.0901 5.6733 18.454 6.31179 18.6942C6.95715 18.9345 7.67803 19.0547 8.47443 19.0547C9.30516 19.0547 10.0329 18.9311 10.6577 18.6839C11.2893 18.4299 11.7836 18.0798 12.1406 17.6335C12.4976 17.1804 12.6796 16.6518 12.6864 16.0476C12.6796 15.4983 12.5182 15.0452 12.2024 14.6882C11.8866 14.3243 11.4438 14.0223 10.8739 13.782C10.311 13.5348 9.65187 13.3151 8.89666 13.1229L6.49716 12.505C4.76018 12.0587 3.38707 11.3825 2.37784 10.4762C1.37547 9.56309 0.87429 8.35133 0.87429 6.84091C0.87429 5.59825 1.2107 4.51006 1.88352 3.57635C2.56321 2.64264 3.48662 1.91832 4.65376 1.40341C5.8209 0.881628 7.14252 0.620738 8.61861 0.620738C10.1153 0.620738 11.4266 0.881628 12.5526 1.40341C13.6854 1.91832 14.5745 2.63577 15.2198 3.55575C15.8652 4.46887 16.1982 5.51929 16.2188 6.70703H12.5423ZM24.8923 6.18182V9.06534H15.7989V6.18182H24.8923ZM18.0439 2.39205H21.7719V17.2422C21.7719 17.7434 21.8474 18.1278 21.9985 18.3956C22.1564 18.6565 22.3623 18.835 22.6164 18.9311C22.8704 19.0272 23.1519 19.0753 23.4608 19.0753C23.6942 19.0753 23.9071 19.0581 24.0993 19.0238C24.2984 18.9895 24.4495 18.9586 24.5524 18.9311L25.1806 21.8455C24.9815 21.9142 24.6966 21.9897 24.3259 22.0721C23.962 22.1545 23.5157 22.2025 22.9871 22.2163C22.0534 22.2437 21.2124 22.103 20.464 21.794C19.7157 21.4782 19.1218 20.9908 18.6824 20.3317C18.2499 19.6726 18.0371 18.8487 18.0439 17.8601V2.39205ZM31.985 22.3089C30.4403 22.3089 29.1015 21.9691 27.9687 21.2894C26.8359 20.6097 25.9571 19.6589 25.3323 18.4368C24.7144 17.2147 24.4055 15.7867 24.4055 14.1527C24.4055 12.5187 24.7144 11.0872 25.3323 9.85831C25.9571 8.62938 26.8359 7.67507 27.9687 6.99538C29.1015 6.3157 30.4403 5.97585 31.985 5.97585C33.5298 5.97585 34.8686 6.3157 36.0014 6.99538C37.1342 7.67507 38.0095 8.62938 38.6274 9.85831C39.2522 11.0872 39.5646 12.5187 39.5646 14.1527C39.5646 15.7867 39.2522 17.2147 38.6274 18.4368C38.0095 19.6589 37.1342 20.6097 36.0014 21.2894C34.8686 21.9691 33.5298 22.3089 31.985 22.3089ZM32.0056 19.3224C32.8432 19.3224 33.5435 19.0924 34.1065 18.6325C34.6695 18.1656 35.0882 17.5408 35.3629 16.7582C35.6444 15.9755 35.7851 15.1036 35.7851 14.1424C35.7851 13.1744 35.6444 12.299 35.3629 11.5163C35.0882 10.7268 34.6695 10.0986 34.1065 9.63175C33.5435 9.16489 32.8432 8.93146 32.0056 8.93146C31.1474 8.93146 30.4334 9.16489 29.8636 9.63175C29.3006 10.0986 28.8784 10.7268 28.5969 11.5163C28.3223 12.299 28.185 13.1744 28.185 14.1424C28.185 15.1036 28.3223 15.9755 28.5969 16.7582C28.8784 17.5408 29.3006 18.1656 29.8636 18.6325C30.4334 19.0924 31.1474 19.3224 32.0056 19.3224ZM46.8736 22.3089C45.2945 22.3089 43.9386 21.9622 42.8058 21.2688C41.6798 20.5754 40.8113 19.6177 40.2003 18.3956C39.5961 17.1667 39.294 15.7524 39.294 14.1527C39.294 12.5462 39.603 11.1284 40.2209 9.8995C40.8388 8.66371 41.7107 7.70253 42.8367 7.01598C43.9695 6.32256 45.3082 5.97585 46.853 5.97585C48.1368 5.97585 49.2731 6.21271 50.2617 6.68643C51.2572 7.15329 52.0502 7.81581 52.6406 8.67401C53.2311 9.52533 53.5675 10.5208 53.6499 11.6605H50.0867C49.9425 10.8984 49.5992 10.2634 49.0568 9.75533C48.5213 9.24041 47.8039 8.98295 46.9045 8.98295C46.1424 8.98295 45.473 9.18892 44.8963 9.60085C44.3196 10.0059 43.8699 10.5895 43.5472 11.3516C43.2314 12.1136 43.0735 13.0268 43.0735 14.0909C43.0735 15.1688 43.2314 16.0956 43.5472 16.8714C43.863 17.6404 44.3059 18.2343 44.8757 18.6531C45.4524 19.065 46.1287 19.271 46.9045 19.271C47.4537 19.271 47.9446 19.168 48.3771 18.962C48.8165 18.7492 49.1838 18.4437 49.4791 18.0455C49.7743 17.6473 49.9768 17.1632 50.0867 16.5934H53.6499C53.5606 17.7125 53.2311 18.7045 52.6612 19.5696C52.0914 20.4278 51.3156 21.1006 50.3338 21.5881C49.352 22.0687 48.1986 22.3089 46.8736 22.3089ZM57.3545 17.0362L57.3442 12.5359H57.9415L63.6261 6.18182H67.9823L60.9898 13.9673H60.2174L57.3545 17.0362ZM53.956 22V0.90909H57.684V22H53.956ZM63.8836 22L58.7344 14.8015L61.2472 12.1754L68.3427 22H63.8836ZM74.0632 22.3089C72.4773 22.3089 71.1076 21.9794 69.9542 21.3203C68.8077 20.6544 67.9255 19.7138 67.3076 18.4986C66.6897 17.2765 66.3807 15.8382 66.3807 14.1836C66.3807 12.5565 66.6897 11.1284 67.3076 9.8995C67.9323 8.66371 68.8042 7.70253 69.9233 7.01598C71.0424 6.32256 72.3572 5.97585 73.8676 5.97585C74.8425 5.97585 75.7625 6.13376 76.6275 6.44957C77.4994 6.75852 78.2684 7.23911 78.9343 7.89134C79.6072 8.54356 80.1358 9.37429 80.5203 10.3835C80.9047 11.3859 81.097 12.5805 81.097 13.9673V15.1104H68.1314V12.5977H77.5235C77.5166 11.8836 77.3621 11.2486 77.06 10.6925C76.758 10.1295 76.3357 9.68667 75.7934 9.36399C75.2578 9.04131 74.6331 8.87997 73.9191 8.87997C73.157 8.87997 72.4876 9.06534 71.9109 9.43608C71.3342 9.79995 70.8845 10.2805 70.5618 10.8778C70.246 11.4683 70.0847 12.1171 70.0778 12.8242V15.0178C70.0778 15.9377 70.246 16.7273 70.5824 17.3864C70.9188 18.0386 71.3891 18.5398 71.9933 18.8899C72.5975 19.2332 73.3046 19.4048 74.1147 19.4048C74.6571 19.4048 75.148 19.3293 75.5874 19.1783C76.0268 19.0204 76.4078 18.7904 76.7305 18.4883C77.0532 18.1862 77.2969 17.812 77.4617 17.3658L80.9425 17.7571C80.7228 18.6771 80.304 19.4804 79.6861 20.1669C79.0751 20.8466 78.2924 21.3752 77.3381 21.7528C76.3838 22.1236 75.2922 22.3089 74.0632 22.3089ZM87.3659 22.2781C86.1232 22.2781 85.011 21.9588 84.0292 21.3203C83.0474 20.6818 82.2716 19.755 81.7018 18.5398C81.132 17.3246 80.847 15.8485 80.847 14.1115C80.847 12.3539 81.1354 10.871 81.7121 9.66264C82.2957 8.44744 83.0818 7.53089 84.0704 6.913C85.059 6.28823 86.161 5.97585 87.3762 5.97585C88.303 5.97585 89.0651 6.13376 89.6624 6.44957C90.2597 6.75852 90.7334 7.13269 91.0835 7.57209C91.4337 8.00462 91.7049 8.41312 91.8971 8.79759H92.0516V0.90909H95.7899V22H92.1237V19.5078H91.8971C91.7049 19.8923 91.4268 20.3008 91.063 20.7333C90.6991 21.159 90.2185 21.5228 89.6212 21.8249C89.0239 22.127 88.2721 22.2781 87.3659 22.2781ZM88.406 19.2195C89.1955 19.2195 89.8684 19.0066 90.4245 18.581C90.9806 18.1484 91.4028 17.5477 91.6911 16.7788C91.9795 16.0098 92.1237 15.1139 92.1237 14.0909C92.1237 13.0679 91.9795 12.1789 91.6911 11.4237C91.4097 10.6684 90.9909 10.0814 90.4348 9.66264C89.8855 9.24384 89.2093 9.03445 88.406 9.03445C87.5753 9.03445 86.8818 9.25071 86.3257 9.68324C85.7696 10.1158 85.3508 10.7131 85.0693 11.4751C84.7879 12.2372 84.6471 13.1091 84.6471 14.0909C84.6471 15.0795 84.7879 15.9618 85.0693 16.7376C85.3577 17.5065 85.7799 18.1141 86.336 18.5604C86.899 18.9998 87.589 19.2195 88.406 19.2195Z" fill="currentColor" />
</svg>