<svg viewBox="0 0 100 100" fill="none" xmlns="http://www.w3.org/2000/svg">
  <path fill-rule="evenodd" clip-rule="evenodd" d="M43.6984 35.1335C41.8609 35.5418 41.0462 36.0675 38.8045 38.2909L37.1232 39.9587L37.1692 40.4517C37.3027 41.8818 35.9119 43.0926 34.6104 42.6797C34.4863 42.6402 34.2043 42.8807 33.2273 43.8593L32 45.0885L34.1007 47.1903C35.2561 48.3464 36.2369 49.2921 36.2803 49.2921C36.3238 49.2921 36.8807 48.7717 37.5179 48.1354L38.6765 46.9787L38.639 46.3942C38.5567 45.1114 39.3999 44.1806 40.6445 44.1806C41.5284 44.1806 41.5993 44.2359 44.7706 47.3966C46.342 48.9627 47.6628 50.2437 47.7056 50.2433C47.7484 50.243 48.3717 49.6534 49.0908 48.9333L50.398 47.624L46.2384 43.4637L42.0788 39.3035L42.2714 39.0986C43.4937 37.7975 46.115 36.8592 48.0079 37.0452L48.5497 37.0985L48.9796 36.6739C49.5224 36.1378 49.54 36.1901 48.6758 35.7755C47.2355 35.0844 45.1373 34.8137 43.6984 35.1335ZM61.268 35.1277C58.1559 36.003 56.1781 39.0447 56.8546 41.9153L56.9388 42.2722L47.5148 51.7114C36.8601 62.3835 37.7167 61.4164 37.7132 62.7768C37.7087 64.5338 38.9186 65.7441 40.6842 65.749C42.1271 65.753 41.151 66.6115 51.8334 55.9414L61.1979 46.5875L61.9331 46.6819C65.622 47.155 68.8944 43.9439 68.4648 40.2726C68.4177 39.8694 68.3543 39.4995 68.3242 39.4506C68.2908 39.3968 67.7348 39.8931 66.9095 40.7135C65.2385 42.3747 65.0072 42.5103 63.8459 42.5098C62.1684 42.5091 60.9524 41.2927 60.9524 39.6149C60.9524 38.5165 61.1695 38.1494 62.7826 36.5184C63.7396 35.5511 64.0679 35.1721 63.9911 35.1236C63.7994 35.0026 61.7015 35.0059 61.268 35.1277ZM54.5257 54.448L52.3849 56.59L56.7074 60.9158C61.7339 65.9462 61.4861 65.7513 62.8528 65.7513C65.2024 65.7513 66.6042 63.4223 65.5034 61.3473C65.3224 61.0063 64.32 59.9585 60.9688 56.6078L56.6665 52.306L54.5257 54.448ZM41.262 61.9163C41.6807 62.1404 41.8343 62.8583 41.56 63.3083C41.1328 64.0088 40.1698 63.9529 39.8086 63.2068C39.3707 62.3023 40.3533 61.4299 41.262 61.9163Z" fill="#0056A6" />

  <path fill-rule="evenodd" clip-rule="evenodd" d="M50 11C28.4609 11 11 28.4609 11 50C11 71.5389 28.4609 89 50 89C71.539 89 89 71.539 89 50C89 28.4609 71.5389 11 50 11ZM15.1753 45.3219C15.3041 45.7641 15.5498 46.5333 15.7941 46.8909C15.9972 47.1884 16.6213 47.4679 17.0252 47.6246L22.3802 47.8758C23.4627 47.9266 24.3423 48.7465 24.4444 49.7997C24.4573 49.9329 24.4573 50.067 24.4444 50.2002C24.3423 51.2535 23.4627 52.0734 22.3802 52.1242L17.0251 52.3754C16.6213 52.5321 15.9972 52.8116 15.7941 53.109C15.5498 53.4667 15.3041 54.2359 15.1753 54.6781C17.2591 70.3396 29.6603 82.7409 45.3219 84.8247C45.7641 84.6959 46.5333 84.4502 46.891 84.2059C47.1884 84.0028 47.4679 83.3787 47.6246 82.9749L47.8758 77.6198C47.9266 76.5373 48.7465 75.6577 49.7998 75.5556C49.933 75.5427 50.0671 75.5427 50.2003 75.5556C51.2535 75.6577 52.0734 76.5373 52.1242 77.6198L52.3754 82.9748C52.5321 83.3787 52.8116 84.0028 53.109 84.2059C53.4667 84.4502 54.2359 84.6959 54.6781 84.8247C70.3396 82.7409 82.7409 70.3396 84.8247 54.6781C84.6959 54.2359 84.4501 53.4667 84.2059 53.109C84.0028 52.8116 83.3787 52.5321 82.9748 52.3754L77.6198 52.1242C76.5373 52.0734 75.6577 51.2535 75.5556 50.2002C75.5427 50.067 75.5427 49.9329 75.5556 49.7997C75.6577 48.7465 76.5373 47.9266 77.6198 47.8758L82.9748 47.6246C83.3787 47.4679 84.0028 47.1884 84.2059 46.891C84.4501 46.5333 84.6959 45.7641 84.8247 45.3219C82.7409 29.6603 70.3396 17.2591 54.6781 15.1753C54.2359 15.3041 53.4667 15.5498 53.109 15.7941C52.8116 15.9972 52.5321 16.6213 52.3754 17.0252L52.1242 22.3802C52.0734 23.4627 51.2535 24.3423 50.2003 24.4444C50.0671 24.4573 49.933 24.4573 49.7998 24.4444C48.7465 24.3423 47.9266 23.4627 47.8758 22.3802L47.6246 17.0251C47.4679 16.6213 47.1884 15.9972 46.891 15.7941C46.5333 15.5498 45.7641 15.3041 45.3219 15.1753C29.6603 17.2591 17.2591 29.6603 15.1753 45.3219Z" fill="#0056A6" />

  <path fill-rule="evenodd" clip-rule="evenodd" d="M50 8.02381C26.8172 8.02381 8.0238 26.8172 8.0238 50C8.0238 73.1828 26.8172 91.9762 50 91.9762C73.1828 91.9762 91.9762 73.1828 91.9762 50C91.9762 26.8172 73.1828 8.02381 50 8.02381ZM9.97618 50C9.97618 27.8955 27.8955 9.97619 50 9.97619C72.1045 9.97619 90.0238 27.8955 90.0238 50C90.0238 72.1045 72.1045 90.0238 50 90.0238C27.8955 90.0238 9.97618 72.1045 9.97618 50Z" fill="#0056A6" />
</svg>