<svg viewBox="0 0 23 23" fill="none" xmlns="http://www.w3.org/2000/svg">
  <path d="M21 12.3559C20.8336 14.1564 20.1578 15.8724 19.0518 17.303C17.9457 18.7335 16.4551 19.8195 14.7544 20.4338C13.0537 21.0481 11.2132 21.1653 9.44827 20.7718C7.68335 20.3783 6.06701 19.4902 4.78837 18.2116C3.50974 16.933 2.6217 15.3166 2.22816 13.5517C1.83463 11.7868 1.95187 9.94628 2.56618 8.24556C3.18049 6.54485 4.26646 5.05425 5.69701 3.94821C7.12756 2.84216 8.84352 2.1664 10.6441 2C9.58992 3.4262 9.08264 5.18339 9.21453 6.952C9.34642 8.7206 10.1087 10.3831 11.3628 11.6372C12.6168 12.8913 14.2794 13.6536 16.048 13.7854C17.8166 13.9173 19.5738 13.41 21 12.3559Z" stroke="black" stroke-width="2.02362" stroke-linecap="round" stroke-linejoin="round" />
</svg>