<svg viewBox="0 0 27 27" fill="none" xmlns="http://www.w3.org/2000/svg">
  <path d="M13.5 16.6364C15.2321 16.6364 16.6363 15.2322 16.6363 13.5C16.6363 11.7678 15.2321 10.3636 13.5 10.3636C11.7678 10.3636 10.3636 11.7678 10.3636 13.5C10.3636 15.2322 11.7678 16.6364 13.5 16.6364Z" stroke="currentColor" stroke-width="2.45" stroke-linecap="round" stroke-linejoin="round" />
  <path d="M21.2363 16.6364C21.0972 16.9517 21.0557 17.3015 21.1171 17.6406C21.1786 17.9798 21.3403 18.2927 21.5813 18.5391L21.6441 18.6018C21.8385 18.796 21.9927 19.0266 22.0979 19.2804C22.2031 19.5343 22.2573 19.8064 22.2573 20.0811C22.2573 20.3559 22.2031 20.628 22.0979 20.8818C21.9927 21.1357 21.8385 21.3663 21.6441 21.5605C21.4499 21.7549 21.2193 21.9091 20.9654 22.0143C20.7116 22.1195 20.4395 22.1737 20.1647 22.1737C19.89 22.1737 19.6179 22.1195 19.364 22.0143C19.1102 21.9091 18.8796 21.7549 18.6854 21.5605L18.6227 21.4977C18.3763 21.2567 18.0634 21.095 17.7242 21.0335C17.3851 20.972 17.0353 21.0136 16.72 21.1527C16.4108 21.2853 16.147 21.5053 15.9613 21.7858C15.7755 22.0663 15.6759 22.395 15.6745 22.7314V22.9091C15.6745 23.4636 15.4542 23.9955 15.0621 24.3876C14.67 24.7797 14.1381 25 13.5836 25C13.0291 25 12.4972 24.7797 12.1051 24.3876C11.713 23.9955 11.4927 23.4636 11.4927 22.9091V22.815C11.4846 22.469 11.3726 22.1334 11.1712 21.8518C10.9699 21.5703 10.6885 21.3558 10.3636 21.2364C10.0483 21.0972 9.6985 21.0557 9.35935 21.1172C9.02021 21.1787 8.70727 21.3403 8.46088 21.5814L8.39815 21.6441C8.20396 21.8385 7.97336 21.9927 7.71953 22.0979C7.46569 22.2032 7.19361 22.2573 6.91883 22.2573C6.64406 22.2573 6.37197 22.2032 6.11814 22.0979C5.86431 21.9927 5.6337 21.8385 5.43952 21.6441C5.24511 21.4499 5.09089 21.2193 4.98566 20.9655C4.88044 20.7116 4.82628 20.4396 4.82628 20.1648C4.82628 19.89 4.88044 19.6179 4.98566 19.3641C5.09089 19.1102 5.24511 18.8796 5.43952 18.6855L5.50224 18.6227C5.74326 18.3763 5.90494 18.0634 5.96643 17.7243C6.02792 17.3851 5.98641 17.0353 5.84724 16.72C5.71472 16.4108 5.49467 16.1471 5.21418 15.9613C4.9337 15.7756 4.60502 15.6759 4.26861 15.6745H4.09088C3.53634 15.6745 3.0045 15.4543 2.61238 15.0621C2.22026 14.67 1.99997 14.1382 1.99997 13.5836C1.99997 13.0291 2.22026 12.4973 2.61238 12.1051C3.0045 11.713 3.53634 11.4927 4.09088 11.4927H4.18497C4.53101 11.4846 4.86661 11.3726 5.14815 11.1713C5.42968 10.9699 5.64413 10.6885 5.76361 10.3636C5.90277 10.0483 5.94428 9.69853 5.88279 9.35939C5.8213 9.02024 5.65962 8.7073 5.41861 8.46091L5.35588 8.39818C5.16147 8.20399 5.00725 7.97339 4.90203 7.71956C4.7968 7.46573 4.74264 7.19364 4.74264 6.91886C4.74264 6.64409 4.7968 6.372 4.90203 6.11817C5.00725 5.86434 5.16147 5.63373 5.35588 5.43955C5.55007 5.24514 5.78067 5.09092 6.0345 4.98569C6.28834 4.88047 6.56042 4.82631 6.8352 4.82631C7.10997 4.82631 7.38206 4.88047 7.63589 4.98569C7.88972 5.09092 8.12033 5.24514 8.31452 5.43955L8.37724 5.50227C8.62363 5.74329 8.93658 5.90497 9.27572 5.96646C9.61486 6.02795 9.96464 5.98644 10.28 5.84727H10.3636C10.6728 5.71475 10.9365 5.4947 11.1223 5.21421C11.308 4.93373 11.4077 4.60505 11.4091 4.26864V4.09091C11.4091 3.53637 11.6294 3.00453 12.0215 2.61241C12.4136 2.22029 12.9454 2 13.5 2C14.0545 2 14.5863 2.22029 14.9785 2.61241C15.3706 3.00453 15.5909 3.53637 15.5909 4.09091V4.185C15.5922 4.52141 15.6919 4.85009 15.8777 5.13058C16.0634 5.41106 16.3271 5.63111 16.6363 5.76364C16.9517 5.9028 17.3014 5.94432 17.6406 5.88282C17.9797 5.82133 18.2927 5.65965 18.5391 5.41864L18.6018 5.35591C18.796 5.1615 19.0266 5.00728 19.2804 4.90206C19.5342 4.79683 19.8063 4.74267 20.0811 4.74267C20.3559 4.74267 20.628 4.79683 20.8818 4.90206C21.1356 5.00728 21.3662 5.1615 21.5604 5.35591C21.7548 5.5501 21.9091 5.7807 22.0143 6.03453C22.1195 6.28837 22.1737 6.56045 22.1737 6.83523C22.1737 7.11001 22.1195 7.38209 22.0143 7.63592C21.9091 7.88975 21.7548 8.12036 21.5604 8.31455L21.4977 8.37727C21.2567 8.62366 21.095 8.93661 21.0335 9.27575C20.972 9.61489 21.0135 9.96467 21.1527 10.28V10.3636C21.2852 10.6728 21.5053 10.9366 21.7858 11.1223C22.0662 11.3081 22.3949 11.4077 22.7313 11.4091H22.9091C23.4636 11.4091 23.9954 11.6294 24.3876 12.0215C24.7797 12.4136 25 12.9455 25 13.5C25 14.0545 24.7797 14.5864 24.3876 14.9785C23.9954 15.3706 23.4636 15.5909 22.9091 15.5909H22.815C22.4786 15.5923 22.1499 15.6919 21.8694 15.8777C21.5889 16.0634 21.3689 16.3272 21.2363 16.6364Z" stroke="currentColor" stroke-width="2.45" stroke-linecap="round" stroke-linejoin="round" />
</svg>